<?xml version="1.0" encoding="UTF-8" standalone="no"?>
<!DOCTYPE svg PUBLIC "-//W3C//DTD SVG 1.1//EN" "http://www.w3.org/Graphics/SVG/1.1/DTD/svg11.dtd">
<svg version="1.1" xmlns="http://www.w3.org/2000/svg" xmlns:xlink="http://www.w3.org/1999/xlink" preserveAspectRatio="xMidYMid meet" viewBox="0 0 640 640" width="640" height="640"><defs><path d="M484.41 458.64C472.58 425.37 452.23 383.95 430.72 358.39C433.05 359.26 444.66 363.62 465.57 371.47L465.57 121.22L335.1 53.46L335.1 546.24C356.01 538.39 367.62 534.03 369.95 533.16C348.44 558.81 328.18 600.05 316.26 633.41C304.33 600.05 284.08 558.72 262.57 533.16C264.89 534.03 276.51 538.39 297.41 546.24L297.41 53.46L166.94 121.22L166.94 371.47C187.85 363.62 199.47 359.26 201.79 358.39C180.28 383.95 160.02 425.28 148.1 458.64C136.26 425.37 115.92 383.95 94.41 358.39C96.73 359.26 108.35 363.62 129.26 371.47L129.26 97.13L316.17 0L503.09 97.13L503.09 371.47C524 363.62 535.61 359.26 537.94 358.39C516.43 383.95 496.17 425.28 484.25 458.64C484.28 458.64 484.38 458.64 484.41 458.64Z" id="a2x7f5fRLN"></path></defs><g><g><g><use xlink:href="#a2x7f5fRLN" opacity="1" fill="WHITE" fill-opacity="1"></use><g><use xlink:href="#a2x7f5fRLN" opacity="1" fill-opacity="0" stroke="#000000" stroke-width="1" stroke-opacity="0"></use></g></g><path></path><path></path><path></path><path></path><path></path><path></path><path></path><path></path><path></path><path></path><path></path><path></path><path></path><path></path><path></path><path></path><path></path><path></path><path></path><path></path><path></path><path></path><path></path><path></path><path></path><path></path><path></path><path></path><path></path></g></g></svg>